<svg id="图层_1" data-name="图层 1" xmlns="http://www.w3.org/2000/svg" viewBox="0 0 142.29 59.9"><defs><style>.cls-1{fill:#ff6700;}.cls-2{fill:#444;}</style></defs><title>logo</title><rect class="cls-1" x="28.35" y="6.3" width="0.31" height="1.58" transform="translate(4.12 23.74) rotate(-50.25)"/><path class="cls-2" d="M57.44,53.07h4.89v.87l-3.57,4.78h3.72v1H57.18v-.8l3.57-4.78H57.44Z" transform="translate(-0.71 -0.73)"/><path class="cls-2" d="M64.1,53.07h1.28v6.64H64.1Z" transform="translate(-0.71 -0.73)"/><path class="cls-2" d="M71.85,53.07h1.42l-2.33,3.24,2.48,3.4H72l-1.75-2.53-1.82,2.53H67l2.55-3.4-2.33-3.24H68.6l1.64,2.41Z" transform="translate(-0.71 -0.73)"/><path class="cls-2" d="M79.71,53.07H81v3.79q0,3-3.1,3t-3-2.92V53.07h1.28v3.79q0,2,1.68,2t1.82-2Z" transform="translate(-0.71 -0.73)"/><path class="cls-2" d="M90.3,53.07h1.28l-2,6.64H88.48L87,54.9l-1.53,4.81H84.4l-1.9-6.64h1.28L85,58.36l1.46-5.29h1.2L89,58.3Z" transform="translate(-0.71 -0.73)"/><path class="cls-2" d="M97.77,59.71l-.58-1.57h-2.7l-.62,1.57H92.59l2.7-6.64h1.09l2.7,6.64ZM94.88,57h1.9l-.95-2.44Z" transform="translate(-0.71 -0.73)"/><path class="cls-2" d="M105.37,57.75V53.07h1.28v6.64h-1.28L101.87,55v4.68H100.6V53.07h1.31Z" transform="translate(-0.71 -0.73)"/><path class="cls-2" d="M111.52,56.05h3.21v2.57a3.45,3.45,0,0,1-3,1.22,3.12,3.12,0,0,1-3.35-3.4q.18-3.3,3.32-3.53a2.81,2.81,0,0,1,3,2l-1.24.42A1.69,1.69,0,0,0,111.74,54q-2,.16-2,2.44t2.08,2.44a2.45,2.45,0,0,0,1.68-.58V57.11h-1.93Z" transform="translate(-0.71 -0.73)"/><path class="cls-2" d="M116.06,58.33h1.64v1.38h-1.64Z" transform="translate(-0.71 -0.73)"/><path class="cls-2" d="M125.31,54.93l-1.24.38Q123.71,54,122.68,54q-1.53.13-1.6,2.41t1.57,2.44q1.2,0,1.49-1.6l1.28.32a2.59,2.59,0,0,1-2.77,2.28q-2.81-.06-2.84-3.43.15-3.24,2.92-3.5A2.5,2.5,0,0,1,125.31,54.93Z" transform="translate(-0.71 -0.73)"/><path class="cls-2" d="M130.07,52.91q3.14.19,3.28,3.47-.07,3.37-3.32,3.47-3.14-.16-3.28-3.4Q126.94,53.1,130.07,52.91Zm0,5.94q2-.1,2.08-2.44-.11-2.31-2-2.44-1.93.13-2,2.47Q128.1,58.75,130,58.84Z" transform="translate(-0.71 -0.73)"/><path class="cls-2" d="M141.11,53.07h1.57v6.64H141.4V55.83l.07-1-2.11,4.84h-.95l-2.11-4.78.07.93v3.85h-1.28V53.07h1.6l2.19,5Z" transform="translate(-0.71 -0.73)"/><path class="cls-2" d="M99.43,47.36V31.64a2.23,2.23,0,0,0-2.23-2.23H94.89l.1-.88H89.38l-.1.88H87.14v2.23H89l-2.16,19h5.61l2.16-19H95V48.47a2.16,2.16,0,0,0,2.16,2.16H114V48.4H100.48A1,1,0,0,1,99.43,47.36Z" transform="translate(-0.71 -0.73)"/><path class="cls-2" d="M105.58,28.29h-2.79a2.23,2.23,0,0,0-2.23,2.23V47.3h11.17A2.23,2.23,0,0,0,114,45.06V28.29Zm3.35,15.42a1.36,1.36,0,0,1-1.36,1.36h-2V38.92h3.35Zm0-7h-3.35V30.52h3.35Z" transform="translate(-0.71 -0.73)"/><path class="cls-2" d="M122.05,28.29h-2.79A2.23,2.23,0,0,0,117,30.52V50.63h5V30.52H138V50.63h1a4,4,0,0,0,4-4V28.29Z" transform="translate(-0.71 -0.73)"/><path class="cls-2" d="M134.86,31.36l-1.2,4-1.2-4h-4.89l-1.2,4-1.2-4h-2.79l2.6,8.69-2.6,8.69h2.79l1.2-4,1.2,4h4.89l1.2-4,1.2,4h2.79l-2.6-8.69,2.6-8.69ZM130,47.59l-2.25-7.54L130,32.52l2.25,7.54Z" transform="translate(-0.71 -0.73)"/><polygon class="cls-2" points="83.64 43.2 77.91 43.2 77.91 37.05 83.36 37.05 83.36 34.82 81.52 34.82 82.89 31.74 77.82 31.74 76.46 34.82 73.22 34.82 71.85 31.74 66.79 31.74 68.15 34.82 66.32 34.82 66.32 37.05 71.77 37.05 71.77 43.2 66.04 43.2 66.04 45.43 71.77 45.43 71.77 49.9 77.91 49.9 77.91 45.43 83.64 45.43 83.64 43.2"/><polygon class="cls-2" points="83.36 28.67 77.49 28.67 77.28 27.55 71.68 27.55 71.89 28.67 66.32 28.67 66.32 30.91 83.36 30.91 83.36 28.67"/><path class="cls-2" d="M65.63,28.29H61.17v1.12H59a1.78,1.78,0,0,0-1.78,1.78v.46h3.91V33.7H57.61l-.36,16.93H60l.29-13.85a.86.86,0,0,1,.82-.83V50.63h4.47V35.94h.63V33.7h-.63V31.64h.63V29.41h-.63Z" transform="translate(-0.71 -0.73)"/><path class="cls-1" d="M27.31,60.63C16.49,60.63,6.37,57.35.9,52.06a.63.63,0,1,1,.87-.9c5.24,5.07,15,8.22,25.54,8.22s20.14-3.1,25.41-8.1a.63.63,0,1,1,.86.91,29.19,29.19,0,0,1-11,6.13A49.85,49.85,0,0,1,27.31,60.63Z" transform="translate(-0.71 -0.73)"/><path class="cls-1" d="M22.08,25.4A14.92,14.92,0,0,1,17,24.51a.47.47,0,1,1,.32-.88,13.42,13.42,0,0,0,13.34-2.3,13.41,13.41,0,0,0,4.19-13,.47.47,0,1,1,.92-.2A14.35,14.35,0,0,1,31.28,22,14,14,0,0,1,22.08,25.4Z" transform="translate(-0.71 -0.73)"/><path class="cls-1" d="M10.92,41l-.66-.27a4.14,4.14,0,0,1-2.44-2.3A5.13,5.13,0,0,1,8,34.81l.32-.67ZM8.32,35.88a4,4,0,0,0,.08,2.37,3.23,3.23,0,0,0,1.4,1.59Z" transform="translate(-0.71 -0.73)"/><path class="cls-1" d="M7.91,42.46a3.58,3.58,0,0,1-1-.14,5.13,5.13,0,0,1-2.8-2.38l-.34-.66,7.07,2.13-.62.36A4.58,4.58,0,0,1,7.91,42.46ZM5.16,40.35a4,4,0,0,0,1.94,1.37,3.23,3.23,0,0,0,2.12-.15Z" transform="translate(-0.71 -0.73)"/><path class="cls-1" d="M31,18.64l-.42-.57C26.25,12.18,27.68,2.41,27.74,2L27.93.73l.67,1.08c6.24,10.08,2.92,16,2.78,16.21ZM28.52,3.53c-.22,2.75-.34,9,2.36,13.29a10.55,10.55,0,0,0,.55-3.24A19.76,19.76,0,0,0,28.52,3.53Z" transform="translate(-0.71 -0.73)"/><rect class="cls-1" x="30.91" y="15.47" width="0.31" height="5.41" transform="translate(-3.23 4.5) rotate(-9.25)"/><rect class="cls-1" x="28.4" y="7.71" width="0.31" height="1.58" transform="translate(3.05 24.29) rotate(-50.25)"/><rect class="cls-1" x="28.61" y="9.11" width="0.31" height="1.58" transform="translate(2.05 24.96) rotate(-50.25)"/><rect class="cls-1" x="29.2" y="12.38" width="0.31" height="1.58" transform="translate(-0.25 26.59) rotate(-50.25)"/><rect class="cls-1" x="28.82" y="10.67" width="0.31" height="1.58" transform="translate(0.93 25.68) rotate(-50.26)"/><path class="cls-1" d="M29.41,19.83l-.65-.28C22,16.64,18.39,7.46,18.24,7.07l-.46-1.19,1.12.6c10.45,5.6,10.52,12.35,10.52,12.64ZM19.69,8c1.19,2.49,4.2,7.94,8.7,10.32a10.55,10.55,0,0,0-1.15-3.08A19.76,19.76,0,0,0,19.69,8Z" transform="translate(-0.71 -0.73)"/><rect class="cls-1" x="29.07" y="16.71" width="0.31" height="5.41" transform="translate(-6.49 21.02) rotate(-37.42)"/><rect class="cls-1" x="20.76" y="9.16" width="0.31" height="1.58" transform="translate(6.87 28.16) rotate(-80.31)"/><rect class="cls-1" x="21.3" y="10.31" width="0.31" height="1.58" transform="translate(6.19 29.64) rotate(-80.31)"/><rect class="cls-1" x="22.05" y="11.5" width="0.31" height="1.58" transform="translate(5.64 31.37) rotate(-80.31)"/><rect class="cls-1" x="22.93" y="12.61" width="0.31" height="1.58" transform="translate(5.28 33.17) rotate(-80.3)"/><rect class="cls-1" x="25.08" y="15.14" width="0.31" height="1.58" transform="translate(4.57 37.39) rotate(-80.31)"/><rect class="cls-1" x="23.9" y="13.85" width="0.31" height="1.58" transform="translate(4.86 35.15) rotate(-80.31)"/><path class="cls-1" d="M26.21,21.67c-6.87,0-13.71-5.49-14-5.74l-1-.8,1.27,0h.82c11.19,0,14.43,5.57,14.56,5.82l.35.62-.71.08A12.17,12.17,0,0,1,26.21,21.67ZM13.91,16c2.26,1.58,7.57,4.83,12.65,4.69A10.55,10.55,0,0,0,24,18.61,19.76,19.76,0,0,0,13.91,16Z" transform="translate(-0.71 -0.73)"/><rect class="cls-1" x="27.67" y="18.55" width="0.31" height="5.41" transform="translate(-3.42 37.66) rotate(-66.67)"/><rect class="cls-1" x="15.16" y="16.97" width="1.58" height="0.31" transform="matrix(0.94, -0.34, 0.34, 0.94, -5.58, 5.7)"/><rect class="cls-1" x="16.18" y="17.7" width="1.58" height="0.31" transform="translate(-5.77 6.09) rotate(-19.84)"/><rect class="cls-1" x="17.42" y="18.37" width="1.58" height="0.31" transform="matrix(0.94, -0.34, 0.34, 0.94, -5.92, 6.55)"/><rect class="cls-1" x="18.74" y="18.9" width="1.58" height="0.31" transform="matrix(0.94, -0.34, 0.34, 0.94, -6.02, 7.03)"/><rect class="cls-1" x="21.86" y="20.04" width="1.58" height="0.31" transform="translate(-6.22 8.15) rotate(-19.84)"/><rect class="cls-1" x="20.19" y="19.5" width="1.58" height="0.31" transform="translate(-6.14 7.56) rotate(-19.84)"/><path class="cls-1" d="M38.68,31.72l-2.46-5.27c.08-.62.72-3.48,5.81-6.22l.69-.37L39.29,16l-.44.73a5.25,5.25,0,0,1-5.15,2.37L33.27,19l-.22.37s-1,1.54-4.57,3.59l-.61.35.42.57c.09.12,8.72,11.91,6,18-2.19,4.93-16.93,1.42-22.42-.34l-.51-.17-.24.48A10.35,10.35,0,0,0,10.42,47C10.68,49.92,12,54.26,17,59.4a.63.63,0,0,0,.89,0,.41.41,0,0,0,.12-.57,14.82,14.82,0,0,1,5.5-3.19c3.58-1.19,9.52-1.74,17.63,2.28a.63.63,0,0,0,1.24.1A41.28,41.28,0,0,0,38.68,31.72Z" transform="translate(-0.71 -0.73)"/></svg>